<svg width="28" height="28" viewBox="0 0 28 28" fill="none" xmlns="http://www.w3.org/2000/svg">
<rect width="28" height="28" rx="5" fill="#F5B300"/>
<path d="M9.29825 6.88711C9.81239 7.02733 10.3265 7.12081 10.8407 7.26103C11.3548 7.40125 11.8689 7.49473 12.3831 7.63495C12.5233 7.68169 12.57 7.63495 12.6168 7.49473C12.8037 6.70016 12.9907 5.95232 13.1776 5.15775C13.2244 5.01753 13.2711 4.97079 13.4113 5.01753C13.8787 5.15775 14.2994 5.25123 14.7668 5.3447C14.907 5.39144 14.907 5.43818 14.8603 5.53166C14.6733 6.2795 14.4864 7.07407 14.2994 7.82191C14.2994 7.86865 14.2994 7.91539 14.2527 8.00887C14.6266 8.10235 15.0472 8.19583 15.4212 8.28931C15.4679 8.28931 15.5146 8.19583 15.5614 8.14909C15.7016 7.54147 15.8418 6.98059 16.0288 6.37298C16.0755 6.18602 16.1222 5.99906 16.169 5.8121C16.169 5.71862 16.2157 5.67188 16.3092 5.71862C16.7766 5.85884 17.244 5.95232 17.7581 6.09254C17.8049 6.09254 17.8049 6.13928 17.8516 6.13928C17.7114 6.7469 17.5712 7.30777 17.431 7.86865C17.3842 8.10235 17.3375 8.33604 17.244 8.56974C17.1973 8.70996 17.244 8.7567 17.3842 8.80344C17.8984 9.03714 18.4125 9.27084 18.9266 9.50454C19.394 9.78498 19.8147 10.1589 20.1419 10.6263C20.5625 11.3274 20.6093 12.0752 20.4223 12.8231C20.2821 13.3372 20.0951 13.8046 19.7212 14.1785C19.4408 14.4589 19.0668 14.6459 18.6929 14.7861C18.6462 14.7861 18.5994 14.8329 18.506 14.8329C18.6929 14.9731 18.8799 15.0666 19.0668 15.2068C19.6277 15.6274 20.0016 16.1416 20.1886 16.7959C20.2821 17.3101 20.2353 17.8709 20.0951 18.3851C19.9082 19.0394 19.6745 19.6003 19.2538 20.1144C18.7397 20.7221 18.0853 21.0492 17.3375 21.1427C16.3559 21.2829 15.4212 21.1895 14.4864 21.0492C14.3461 21.0025 14.2527 21.0492 14.2059 21.1895C14.019 21.9373 13.832 22.7319 13.645 23.4797C13.5983 23.6667 13.5983 23.7134 13.3646 23.6199C12.9439 23.5264 12.4766 23.3862 12.0559 23.2927C11.9157 23.246 11.9157 23.1993 11.9624 23.1058C12.1494 22.3112 12.3363 21.5166 12.57 20.7688C12.57 20.6753 12.6168 20.6286 12.5233 20.5818C12.1494 20.4884 11.7755 20.3949 11.3548 20.3014C11.2613 20.7221 11.1211 21.1427 11.0276 21.5634C10.9341 21.984 10.7939 22.4047 10.7004 22.8253C10.6537 22.9188 10.6537 22.9656 10.5135 22.9188C10.0461 22.7786 9.57869 22.6851 9.11129 22.5917C8.97107 22.5449 8.97107 22.4982 9.01781 22.4047C9.20477 21.6101 9.39173 20.8155 9.62543 20.0677C9.62543 20.021 9.67217 19.9742 9.67217 19.8807C8.59716 19.6003 7.52214 19.3199 6.40039 19.0394C6.49387 18.8525 6.54061 18.7123 6.63409 18.5253C6.82105 18.1046 7.00801 17.684 7.14823 17.3101C7.19497 17.1698 7.24171 17.1698 7.38192 17.1698C7.7091 17.2633 8.08302 17.3568 8.4102 17.4035C8.78411 17.497 9.06455 17.3101 9.11129 16.9829C9.71891 14.5992 10.3265 12.2154 10.8874 9.78498C10.9809 9.41106 10.7472 8.9904 10.3265 8.85018C9.90587 8.70996 9.48521 8.61648 9.11129 8.523C9.01781 8.523 8.97107 8.47626 9.01781 8.38278C9.15803 7.86865 9.29825 7.30777 9.43847 6.79364C9.25151 6.93385 9.25151 6.93385 9.29825 6.88711ZM11.682 18.4318C11.7287 18.4318 11.7755 18.4786 11.7755 18.4786C12.5233 18.6655 13.3179 18.8992 14.1124 18.946C14.6733 18.9927 15.1875 18.9927 15.7016 18.8057C16.5896 18.5253 16.9636 17.3568 16.4494 16.609C16.2157 16.2351 15.8418 16.0014 15.4679 15.7677C14.6266 15.3003 13.645 15.1133 12.7102 14.9263C12.57 14.8796 12.57 14.9263 12.5233 15.0666C12.4298 15.534 12.2896 15.9546 12.1961 16.422C12.0092 17.0764 11.8689 17.7307 11.682 18.4318ZM15.6081 13.6644C15.7016 13.6644 15.9353 13.6176 16.1222 13.5709C17.0103 13.3839 17.4777 12.3557 17.0103 11.5611C16.7766 11.1404 16.3559 10.86 15.9353 10.673C15.2809 10.3926 14.6266 10.2524 13.9255 10.0654C13.7853 10.0187 13.7385 10.0654 13.6918 10.2056C13.4581 11.1872 13.2244 12.122 12.9439 13.1035C12.8972 13.197 12.9439 13.2437 13.0374 13.2905C13.2244 13.3372 13.3646 13.3839 13.5516 13.4307C14.2527 13.5242 14.8603 13.6644 15.6081 13.6644Z" fill="white"/>
</svg>
