<svg width="29" height="28" viewBox="0 0 29 28" fill="none" xmlns="http://www.w3.org/2000/svg">
<path d="M23.5518 0H5.55176C2.79033 0 0.551758 2.23858 0.551758 5V23C0.551758 25.7614 2.79033 28 5.55176 28H23.5518C26.3132 28 28.5518 25.7614 28.5518 23V5C28.5518 2.23858 26.3132 0 23.5518 0Z" fill="#383838"/>
<path d="M12.2559 13.8005C12.7704 14.863 13.6295 15.72 14.6934 16.2318C14.7718 16.2689 14.8586 16.285 14.9452 16.2784C15.0318 16.2718 15.1151 16.2428 15.1871 16.1943L16.7496 15.1505C16.8186 15.1037 16.8984 15.0751 16.9815 15.0675C17.0645 15.0598 17.1482 15.0733 17.2246 15.1068L20.1496 16.363C20.2496 16.4046 20.3331 16.4779 20.3873 16.5717C20.4415 16.6654 20.4634 16.7744 20.4496 16.8818C20.3569 17.6053 20.0037 18.2704 19.4561 18.7524C18.9086 19.2344 18.2041 19.5003 17.4746 19.5005C15.2203 19.5005 13.0583 18.605 11.4642 17.0109C9.87014 15.4169 8.97461 13.2548 8.97461 11.0005C8.97477 10.271 9.24074 9.56656 9.72275 9.01898C10.2048 8.4714 10.8698 8.11822 11.5934 8.02551C11.7008 8.01171 11.8097 8.0336 11.9035 8.08781C11.9972 8.14202 12.0705 8.22554 12.1121 8.32551L13.3684 11.2568C13.401 11.332 13.4147 11.4141 13.4082 11.4958C13.4016 11.5776 13.3751 11.6564 13.3309 11.7255L12.2871 13.313C12.2406 13.3848 12.2134 13.4673 12.2079 13.5527C12.2024 13.638 12.2189 13.7234 12.2559 13.8005Z" stroke="white" stroke-linecap="round" stroke-linejoin="round"/>
</svg>
