<svg width="57" height="56" viewBox="0 0 57 56" fill="none" xmlns="http://www.w3.org/2000/svg">
<rect x="0.554199" width="56" height="56" rx="10" fill="#F5F5F5"/>
<path d="M17.5542 20V36C17.5542 36.5304 17.7649 37.0391 18.14 37.4142C18.5151 37.7893 19.0238 38 19.5542 38H39.5542C39.8194 38 40.0738 37.8946 40.2613 37.7071C40.4488 37.5196 40.5542 37.2652 40.5542 37V23C40.5542 22.7348 40.4488 22.4804 40.2613 22.2929C40.0738 22.1054 39.8194 22 39.5542 22H19.5542C19.0238 22 18.5151 21.7893 18.14 21.4142C17.7649 21.0391 17.5542 20.5304 17.5542 20ZM17.5542 20C17.5542 19.4696 17.7649 18.9609 18.14 18.5858C18.5151 18.2107 19.0238 18 19.5542 18H36.5542" stroke="#7250E6" stroke-width="2" stroke-linecap="round" stroke-linejoin="round"/>
<path d="M36.4917 30C36.4917 30.7939 35.8481 31.4375 35.0542 31.4375C34.2603 31.4375 33.6167 30.7939 33.6167 30C33.6167 29.2061 34.2603 28.5625 35.0542 28.5625C35.8481 28.5625 36.4917 29.2061 36.4917 30Z" fill="#7250E6" stroke="#7250E6" stroke-width="0.125"/>
</svg>
