<svg width="57" height="56" viewBox="0 0 57 56" fill="none" xmlns="http://www.w3.org/2000/svg">
<rect x="0.554199" width="56" height="56" rx="10" fill="#F5F5F5"/>
<path d="M42.1854 27.019L39.0979 28.5565L35.0979 20.9065L38.2229 19.344C38.4551 19.2257 38.7248 19.2039 38.973 19.2835C39.2212 19.3631 39.4279 19.5377 39.5479 19.769L42.6229 25.6565C42.6853 25.7744 42.7234 25.9035 42.7351 26.0363C42.7468 26.1692 42.7319 26.303 42.6911 26.4299C42.6504 26.5569 42.5846 26.6744 42.4978 26.7756C42.4109 26.8767 42.3047 26.9595 42.1854 27.019Z" stroke="#7250E6" stroke-width="2" stroke-linecap="round" stroke-linejoin="round"/>
<path d="M17.0979 28.4334L14.0104 26.8834C13.8916 26.8251 13.7856 26.7436 13.6989 26.6435C13.6122 26.5435 13.5464 26.427 13.5056 26.3011C13.4648 26.1752 13.4497 26.0423 13.4613 25.9104C13.4729 25.7785 13.5108 25.6503 13.5729 25.5334L16.6479 19.6459C16.7682 19.4147 16.974 19.2396 17.2215 19.1578C17.469 19.0761 17.7386 19.0943 17.9729 19.2084L21.0979 20.7709L17.0979 28.4334Z" stroke="#7250E6" stroke-width="2" stroke-linecap="round" stroke-linejoin="round"/>
<path d="M39.0979 28.5566L37.0979 30.9066L32.4979 35.5066C32.3725 35.6239 32.2206 35.709 32.0552 35.7547C31.8897 35.8004 31.7157 35.8054 31.5479 35.7691L24.2979 33.9566C24.1655 33.9197 24.0421 33.8559 23.9354 33.7691L17.0979 28.4316" stroke="#7250E6" stroke-width="2" stroke-linecap="round" stroke-linejoin="round"/>
<path d="M37.098 30.9082L31.598 26.9082L29.998 28.1082C29.3048 28.6256 28.463 28.9051 27.598 28.9051C26.733 28.9051 25.8912 28.6256 25.198 28.1082L24.523 27.5957C24.4089 27.5089 24.3145 27.3989 24.246 27.2729C24.1776 27.1469 24.1367 27.0078 24.1261 26.8648C24.1154 26.7218 24.1353 26.5782 24.1843 26.4434C24.2334 26.3087 24.3105 26.1859 24.4105 26.0832L29.3105 21.1957C29.4026 21.1041 29.5118 21.0316 29.6319 20.9822C29.752 20.9329 29.8807 20.9078 30.0105 20.9082H35.098" stroke="#7250E6" stroke-width="2" stroke-linecap="round" stroke-linejoin="round"/>
<path d="M21.1729 20.7692L27.5854 18.8942C27.8132 18.8289 28.0569 18.8466 28.2729 18.9442L32.5979 20.9067" stroke="#7250E6" stroke-width="2" stroke-linecap="round" stroke-linejoin="round"/>
<path d="M26.0979 38.4074L22.3354 37.4574C22.1821 37.4228 22.0401 37.3497 21.9229 37.2449L19.0979 34.7949" stroke="#7250E6" stroke-width="2" stroke-linecap="round" stroke-linejoin="round"/>
</svg>
