<svg width="56" height="56" viewBox="0 0 56 56" fill="none" xmlns="http://www.w3.org/2000/svg">
<rect width="56" height="56" rx="10" fill="#F5F5F5"/>
<path d="M40.5437 19.5918H14.5437C13.9914 19.5918 13.5437 20.0395 13.5437 20.5918V34.5918C13.5437 35.1441 13.9914 35.5918 14.5437 35.5918H40.5437C41.096 35.5918 41.5437 35.1441 41.5437 34.5918V20.5918C41.5437 20.0395 41.096 19.5918 40.5437 19.5918Z" stroke="#7250E6" stroke-width="2" stroke-linecap="round" stroke-linejoin="round"/>
<path d="M27.5437 31.5918C29.7528 31.5918 31.5437 29.8009 31.5437 27.5918C31.5437 25.3827 29.7528 23.5918 27.5437 23.5918C25.3346 23.5918 23.5437 25.3827 23.5437 27.5918C23.5437 29.8009 25.3346 31.5918 27.5437 31.5918Z" stroke="#7250E6" stroke-width="2" stroke-linecap="round" stroke-linejoin="round"/>
<path d="M33.5437 19.5918L41.5437 26.5918" stroke="#7250E6" stroke-width="2" stroke-linecap="round" stroke-linejoin="round"/>
<path d="M33.5437 35.5918L41.5437 28.5918" stroke="#7250E6" stroke-width="2" stroke-linecap="round" stroke-linejoin="round"/>
<path d="M21.5437 19.5918L13.5437 26.5918" stroke="#7250E6" stroke-width="2" stroke-linecap="round" stroke-linejoin="round"/>
<path d="M21.5437 35.5918L13.5437 28.5918" stroke="#7250E6" stroke-width="2" stroke-linecap="round" stroke-linejoin="round"/>
</svg>
