<svg width="57" height="56" viewBox="0 0 57 56" fill="none" xmlns="http://www.w3.org/2000/svg">
<rect x="0.554199" width="56" height="56" rx="10" fill="#F5F5F5"/>
<path d="M22.1716 26.8516H31.1716C32.4977 26.8516 33.7695 27.3783 34.7072 28.316C35.6448 29.2537 36.1716 30.5255 36.1716 31.8516C36.1716 33.1776 35.6448 34.4494 34.7072 35.3871C33.7695 36.3248 32.4977 36.8516 31.1716 36.8516H22.1716V17.8516H29.6716C30.8651 17.8516 32.0097 18.3257 32.8536 19.1696C33.6975 20.0135 34.1716 21.1581 34.1716 22.3516C34.1716 23.545 33.6975 24.6896 32.8536 25.5335C32.0097 26.3775 30.8651 26.8516 29.6716 26.8516" stroke="#7250E6" stroke-width="2" stroke-linecap="round" stroke-linejoin="round"/>
<path d="M20.1716 17.8516H22.1716" stroke="#7250E6" stroke-width="2" stroke-linecap="round" stroke-linejoin="round"/>
<path d="M20.1716 36.8516H22.1716" stroke="#7250E6" stroke-width="2" stroke-linecap="round" stroke-linejoin="round"/>
<path d="M25.1716 17.8516V14.8516" stroke="#7250E6" stroke-width="2" stroke-linecap="round" stroke-linejoin="round"/>
<path d="M29.1716 17.8516V14.8516" stroke="#7250E6" stroke-width="2" stroke-linecap="round" stroke-linejoin="round"/>
<path d="M25.1716 39.8516V36.8516" stroke="#7250E6" stroke-width="2" stroke-linecap="round" stroke-linejoin="round"/>
<path d="M29.1716 39.8516V36.8516" stroke="#7250E6" stroke-width="2" stroke-linecap="round" stroke-linejoin="round"/>
</svg>
