<svg width="56" height="56" viewBox="0 0 56 56" fill="none" xmlns="http://www.w3.org/2000/svg">
<rect width="56" height="56" rx="10" fill="#F5F5F5"/>
<path d="M29.3375 33.438L26.9375 39.9505C26.8664 40.1418 26.7385 40.3069 26.5709 40.4234C26.4033 40.54 26.2041 40.6025 26 40.6025C25.7958 40.6025 25.5966 40.54 25.429 40.4234C25.2614 40.3069 25.1335 40.1418 25.0625 39.9505L22.6625 33.438C22.6118 33.3005 22.5319 33.1757 22.4283 33.0721C22.3248 32.9685 22.1999 32.8886 22.0625 32.838L15.55 30.438C15.3586 30.3669 15.1935 30.239 15.077 30.0714C14.9604 29.9038 14.8979 29.7046 14.8979 29.5005C14.8979 29.2963 14.9604 29.0971 15.077 28.9295C15.1935 28.7619 15.3586 28.634 15.55 28.563L22.0625 26.163C22.1999 26.1123 22.3248 26.0324 22.4283 25.9288C22.5319 25.8252 22.6118 25.7004 22.6625 25.563L25.0625 19.0505C25.1335 18.8591 25.2614 18.694 25.429 18.5775C25.5966 18.4609 25.7958 18.3984 26 18.3984C26.2041 18.3984 26.4033 18.4609 26.5709 18.5775C26.7385 18.694 26.8664 18.8591 26.9375 19.0505L29.3375 25.563C29.3881 25.7004 29.468 25.8252 29.5716 25.9288C29.6752 26.0324 29.8 26.1123 29.9375 26.163L36.45 28.563C36.6413 28.634 36.8064 28.7619 36.9229 28.9295C37.0395 29.0971 37.102 29.2963 37.102 29.5005C37.102 29.7046 37.0395 29.9038 36.9229 30.0714C36.8064 30.239 36.6413 30.3669 36.45 30.438L29.9375 32.838C29.8 32.8886 29.6752 32.9685 29.5716 33.0721C29.468 33.1757 29.3881 33.3005 29.3375 33.438Z" stroke="#7250E6" stroke-width="2" stroke-linecap="round" stroke-linejoin="round"/>
<path d="M34 13.5V19.5" stroke="#7250E6" stroke-width="2" stroke-linecap="round" stroke-linejoin="round"/>
<path d="M37 16.5H31" stroke="#7250E6" stroke-width="2" stroke-linecap="round" stroke-linejoin="round"/>
<path d="M40 20.5V24.5" stroke="#7250E6" stroke-width="2" stroke-linecap="round" stroke-linejoin="round"/>
<path d="M42 22.5H38" stroke="#7250E6" stroke-width="2" stroke-linecap="round" stroke-linejoin="round"/>
</svg>
