<svg width="64" height="64" viewBox="0 0 64 64" fill="none" xmlns="http://www.w3.org/2000/svg">
<rect width="63.2809" height="64" rx="10" fill="#D9D9D9"/>
<path d="M38 24H26V30H38V24Z" stroke="#7250E6" stroke-width="2" stroke-linecap="round" stroke-linejoin="round"/>
<path d="M42 43V21C42 20.4477 41.5523 20 41 20H23C22.4477 20 22 20.4477 22 21V43C22 43.5523 22.4477 44 23 44H41C41.5523 44 42 43.5523 42 43Z" stroke="#7250E6" stroke-width="2" stroke-linecap="round" stroke-linejoin="round"/>
<path d="M27 36C27.8284 36 28.5 35.3284 28.5 34.5C28.5 33.6716 27.8284 33 27 33C26.1716 33 25.5 33.6716 25.5 34.5C25.5 35.3284 26.1716 36 27 36Z" fill="#7250E6"/>
<path d="M32 36C32.8284 36 33.5 35.3284 33.5 34.5C33.5 33.6716 32.8284 33 32 33C31.1716 33 30.5 33.6716 30.5 34.5C30.5 35.3284 31.1716 36 32 36Z" fill="#7250E6"/>
<path d="M37 36C37.8284 36 38.5 35.3284 38.5 34.5C38.5 33.6716 37.8284 33 37 33C36.1716 33 35.5 33.6716 35.5 34.5C35.5 35.3284 36.1716 36 37 36Z" fill="#7250E6"/>
<path d="M27 41C27.8284 41 28.5 40.3284 28.5 39.5C28.5 38.6716 27.8284 38 27 38C26.1716 38 25.5 38.6716 25.5 39.5C25.5 40.3284 26.1716 41 27 41Z" fill="#7250E6"/>
<path d="M32 41C32.8284 41 33.5 40.3284 33.5 39.5C33.5 38.6716 32.8284 38 32 38C31.1716 38 30.5 38.6716 30.5 39.5C30.5 40.3284 31.1716 41 32 41Z" fill="#7250E6"/>
<path d="M37 41C37.8284 41 38.5 40.3284 38.5 39.5C38.5 38.6716 37.8284 38 37 38C36.1716 38 35.5 38.6716 35.5 39.5C35.5 40.3284 36.1716 41 37 41Z" fill="#7250E6"/>
</svg>
