<svg width="57" height="56" viewBox="0 0 57 56" fill="none" xmlns="http://www.w3.org/2000/svg">
<rect x="0.55426" width="56" height="56" rx="10" fill="#F5F5F5"/>
<path d="M40.7703 28.2841H36.7703C36.2399 28.2841 35.7312 28.4948 35.3561 28.8699C34.981 29.245 34.7703 29.7537 34.7703 30.2841V35.2841C34.7703 35.8145 34.981 36.3232 35.3561 36.6983C35.7312 37.0734 36.2399 37.2841 36.7703 37.2841H38.7703C39.3008 37.2841 39.8095 37.0734 40.1845 36.6983C40.5596 36.3232 40.7703 35.8145 40.7703 35.2841V28.2841ZM40.7703 28.2841C40.7704 26.6998 40.4567 25.1312 39.8474 23.6687C39.2381 22.2062 38.3452 20.8789 37.2203 19.7633C36.0954 18.6477 34.7607 17.7658 33.2932 17.1687C31.8258 16.5715 30.2546 16.2709 28.6703 16.2841C27.0871 16.2726 25.5173 16.5744 24.0512 17.1723C22.5852 17.7702 21.252 18.6523 20.1284 19.7677C19.0048 20.8832 18.1131 22.21 17.5046 23.6716C16.896 25.1332 16.5828 26.7009 16.5828 28.2841M16.5828 28.2841V35.2841C16.5828 35.8145 16.7935 36.3232 17.1686 36.6983C17.5437 37.0734 18.0524 37.2841 18.5828 37.2841H20.5828C21.1133 37.2841 21.622 37.0734 21.997 36.6983C22.3721 36.3232 22.5828 35.8145 22.5828 35.2841V30.2841C22.5828 29.7537 22.3721 29.245 21.997 28.8699C21.622 28.4948 21.1133 28.2841 20.5828 28.2841H16.5828Z" stroke="#7250E6" stroke-width="2" stroke-linecap="round" stroke-linejoin="round"/>
<path d="M40.7703 35.2842V38.2842C40.7703 39.345 40.3489 40.3625 39.5988 41.1126C38.8486 41.8628 37.8312 42.2842 36.7703 42.2842H29.5828" stroke="#7250E6" stroke-width="2" stroke-linecap="round" stroke-linejoin="round"/>
</svg>
