<svg width="56" height="56" viewBox="0 0 56 56" fill="none" xmlns="http://www.w3.org/2000/svg">
<rect width="56" height="56" rx="10" fill="#F5F5F5"/>
<path d="M27.7228 34.4607C31.0365 34.4607 33.7228 31.7744 33.7228 28.4607C33.7228 25.147 31.0365 22.4607 27.7228 22.4607C24.4091 22.4607 21.7228 25.147 21.7228 28.4607C21.7228 31.7744 24.4091 34.4607 27.7228 34.4607Z" stroke="#7250E6" stroke-width="2" stroke-linecap="round" stroke-linejoin="round"/>
<path d="M34.6854 20.5981C35.002 20.8898 35.302 21.1898 35.5854 21.4981L38.9979 21.9856C39.5539 22.9513 39.9824 23.9849 40.2729 25.0606L38.1979 27.8231C38.1979 27.8231 38.2354 28.6731 38.1979 29.0981L40.2729 31.8606C39.9838 32.9369 39.5551 33.9706 38.9979 34.9356L35.5854 35.4231C35.5854 35.4231 34.9979 36.0356 34.6854 36.3231L34.1979 39.7356C33.2322 40.2917 32.1986 40.7202 31.1229 41.0106L28.3604 38.9356C27.9362 38.9732 27.5095 38.9732 27.0854 38.9356L24.3229 41.0106C23.2466 40.7216 22.2129 40.2929 21.2479 39.7356L20.7604 36.3231C20.452 36.0315 20.152 35.7315 19.8604 35.4231L16.4479 34.9356C15.8918 33.97 15.4633 32.9364 15.1729 31.8606L17.2479 29.0981C17.2479 29.0981 17.2104 28.2481 17.2479 27.8231L15.1729 25.0606C15.4619 23.9844 15.8906 22.9506 16.4479 21.9856L19.8604 21.4981C20.152 21.1898 20.452 20.8898 20.7604 20.5981L21.2479 17.1856C22.2135 16.6296 23.2471 16.2011 24.3229 15.9106L27.0854 17.9856C27.5095 17.9481 27.9362 17.9481 28.3604 17.9856L31.1229 15.9106C32.1991 16.1997 33.2328 16.6283 34.1979 17.1856L34.6854 20.5981Z" stroke="#7250E6" stroke-width="2" stroke-linecap="round" stroke-linejoin="round"/>
</svg>
