<svg width="64" height="64" viewBox="0 0 64 64" fill="none" xmlns="http://www.w3.org/2000/svg">
<rect width="63.2809" height="64" rx="10" fill="#D9D9D9"/>
<path d="M22 39V25" stroke="#7250E6" stroke-width="2" stroke-linecap="round" stroke-linejoin="round"/>
<path d="M42 25V39" stroke="#7250E6" stroke-width="2" stroke-linecap="round" stroke-linejoin="round"/>
<path d="M28 32V34" stroke="#7250E6" stroke-width="2" stroke-linecap="round" stroke-linejoin="round"/>
<path d="M32 31V34" stroke="#7250E6" stroke-width="2" stroke-linecap="round" stroke-linejoin="round"/>
<path d="M36 30V34" stroke="#7250E6" stroke-width="2" stroke-linecap="round" stroke-linejoin="round"/>
<path d="M43 21H21C20.4477 21 20 21.4477 20 22V24C20 24.5523 20.4477 25 21 25H43C43.5523 25 44 24.5523 44 24V22C44 21.4477 43.5523 21 43 21Z" stroke="#7250E6" stroke-width="2" stroke-linecap="round" stroke-linejoin="round"/>
<path d="M32 39V43" stroke="#7250E6" stroke-width="2" stroke-linecap="round" stroke-linejoin="round"/>
<path d="M32 47C33.1046 47 34 46.1046 34 45C34 43.8954 33.1046 43 32 43C30.8954 43 30 43.8954 30 45C30 46.1046 30.8954 47 32 47Z" stroke="#7250E6" stroke-width="2" stroke-linecap="round" stroke-linejoin="round"/>
<path d="M20 39H44" stroke="#7250E6" stroke-width="2" stroke-linecap="round" stroke-linejoin="round"/>
</svg>
