<svg width="56" height="57" viewBox="0 0 56 57" fill="none" xmlns="http://www.w3.org/2000/svg">
<rect y="0.145264" width="56" height="56" rx="10" fill="#F5F5F5"/>
<path d="M39.5115 21.4809C40.1675 23.0125 40.328 24.7109 39.9707 26.3384C39.6134 27.9658 38.7562 29.4407 37.519 30.5567C36.2817 31.6727 34.7265 32.3738 33.071 32.5619C31.4155 32.7501 29.7426 32.4158 28.2865 31.6059L21.274 39.7309C20.7104 40.2945 19.946 40.6111 19.149 40.6111C18.352 40.6111 17.5876 40.2945 17.024 39.7309C16.4604 39.1674 16.1438 38.403 16.1438 37.6059C16.1438 36.8089 16.4604 36.0445 17.024 35.4809L25.149 28.4684C24.3391 27.0123 24.0048 25.3394 24.193 23.6839C24.3811 22.0284 25.0823 20.4732 26.1983 19.236C27.3142 17.9988 28.7892 17.1415 30.4166 16.7842C32.044 16.4269 33.7424 16.5875 35.274 17.2434L30.024 22.4809L30.7365 26.0184L34.274 26.7309L39.5115 21.4809Z" stroke="#7250E6" stroke-width="2" stroke-linecap="round" stroke-linejoin="round"/>
</svg>
