<svg width="56" height="56" viewBox="0 0 56 56" fill="none" xmlns="http://www.w3.org/2000/svg">
<rect width="56" height="56" rx="10" fill="#F5F5F5"/>
<path d="M17.5657 36.7841C17.5977 36.9156 17.6557 37.0393 17.7363 37.148C17.8169 37.2566 17.9185 37.348 18.035 37.4168C18.1516 37.4855 18.2807 37.5302 18.4148 37.5483C18.5489 37.5663 18.6852 37.5572 18.8157 37.5216C24.7745 35.8717 31.0695 35.8717 37.0282 37.5216C37.1588 37.5572 37.2951 37.5663 37.4292 37.5483C37.5633 37.5302 37.6924 37.4855 37.8089 37.4168C37.9255 37.348 38.027 37.2566 38.1076 37.148C38.1882 37.0393 38.2463 36.9156 38.2782 36.7841L41.4657 23.2466C41.5095 23.0654 41.5018 22.8756 41.4434 22.6986C41.385 22.5216 41.2782 22.3644 41.1353 22.2448C40.9923 22.1252 40.8187 22.0479 40.6341 22.0218C40.4496 21.9956 40.2614 22.0215 40.0907 22.0966L33.7657 24.9091C33.5366 25.01 33.2781 25.0224 33.0404 24.944C32.8026 24.8655 32.6023 24.7016 32.4782 24.4841L28.8032 17.8591C28.7168 17.7028 28.59 17.5726 28.4361 17.4818C28.2822 17.3911 28.1069 17.3433 27.9282 17.3433C27.7496 17.3433 27.5742 17.3911 27.4204 17.4818C27.2665 17.5726 27.1397 17.7028 27.0532 17.8591L23.3782 24.4841C23.2542 24.7016 23.0539 24.8655 22.8161 24.944C22.5784 25.0224 22.3199 25.01 22.0907 24.9091L15.7657 22.0966C15.5951 22.0215 15.4069 21.9956 15.2224 22.0218C15.0378 22.0479 14.8642 22.1252 14.7212 22.2448C14.5782 22.3644 14.4715 22.5216 14.4131 22.6986C14.3547 22.8756 14.347 23.0654 14.3907 23.2466L17.5657 36.7841Z" stroke="#7250E6" stroke-width="2" stroke-linecap="round" stroke-linejoin="round"/>
</svg>
