<svg width="191" height="36" viewBox="0 0 191 36" fill="none" xmlns="http://www.w3.org/2000/svg">
<path d="M14.1587 5.34961L5.85479 31.762C3.10056 29.5987 1.06084 26.6596 0 23.3256V23.3256L5.64719 5.34961H14.1587Z" fill="url(#paint0_linear_3946_15552)"/>
<path d="M20.6703 19.1777L15.5281 35.4989C12.7865 35.3186 10.1266 34.4935 7.76562 33.0909L12.1392 19.1777H20.6703Z" fill="url(#paint1_linear_3946_15552)"/>
<path d="M25.764 2.9192L21.3147 17.076H12.8145L18.0184 0.5C20.7558 0.682957 23.4104 1.5121 25.764 2.9192" fill="url(#paint2_linear_3946_15552)"/>
<path d="M33.5407 12.6805L27.8935 30.6565H19.3877L27.6831 4.24414C30.4375 6.40787 32.478 9.34673 33.5407 12.6805Z" fill="url(#paint3_linear_3946_15552)"/>
<path d="M55.5114 9.16992H50.4102V26.6005H55.5114V9.16992Z" fill="#1E1E1E"/>
<path d="M68.4841 9.16992V18.974H68.436L62.7199 9.16992H57.6133V26.6059H62.5487V16.7324H62.5969L68.1419 26.6059H73.4196V9.16992H68.4841Z" fill="#1E1E1E"/>
<path d="M74.8311 9.16992V13.5142H79.7665V26.6059H84.8678V13.5142H89.8781V9.16992H74.8311Z" fill="#1E1E1E"/>
<path d="M158.055 25.7419L151.905 9.19727H146.708L140.243 26.6065H145.328L146.179 24.0448H152.06L152.916 26.6065H158.338L158.055 25.7419ZM147.36 20.533L148.51 17.1174C148.804 16.2688 149.162 14.8812 149.162 14.8812H149.216C149.216 14.8812 149.606 16.2688 149.879 17.1174L150.975 20.533H147.36Z" fill="#1E1E1E"/>
<path d="M185.508 9.16992V15.5583H180.139V9.16992H175.027V26.6059H180.139V19.7799H185.508V26.6059H190.614V9.16992H185.508Z" fill="#1E1E1E"/>
<path d="M173.642 21.0127C173.642 24.6632 170.38 26.6059 166.418 26.6059H159.247V22.8379H166.514C167.477 22.8379 168.653 22.4644 168.653 21.4557C168.653 20.447 167.53 20.1961 165.445 19.6785C162.632 18.974 159.231 18.0133 159.231 14.4589C159.231 10.6269 162.37 9.16992 166.145 9.16992H172.872V12.7724H165.91C164.841 12.7724 164.076 13.2687 164.076 13.9465C164.076 14.9285 165.509 15.0726 168.017 15.681C170.835 16.3588 173.648 17.4529 173.648 21.018" fill="#1E1E1E"/>
<path d="M122.089 25.7888L119.64 19.5819L119.25 18.5999C121.084 17.7726 122.111 16.3583 122.111 14.3623C122.111 10.8025 119.084 9.16406 115.517 9.16406H106.85V26.6H111.951V20.5318H113.924C114.103 20.5202 114.282 20.5615 114.438 20.6507C114.594 20.74 114.72 20.8731 114.801 21.0335V21.0335L116.758 26.6053H122.405L122.089 25.7888ZM114.689 16.8813H111.951V13.1455H114.758C116.223 13.1455 116.956 13.8766 116.956 15.0187C116.956 16.1609 116.154 16.8707 114.689 16.8707" fill="#1E1E1E"/>
<path d="M96.3913 22.2349V19.513H103.503V15.681H96.3913V13.3168H104.893V9.16992H91.29V26.6059H105.139V22.2349H96.3913Z" fill="#1E1E1E"/>
<path d="M134.201 9.16992V15.5583H128.827V9.16992H123.726V26.6059H128.827V19.7799H134.201V26.6059H139.302V9.16992H134.201Z" fill="#1E1E1E"/>
<defs>
<linearGradient id="paint0_linear_3946_15552" x1="7.07933" y1="5.34961" x2="-0.172354" y2="26.5341" gradientUnits="userSpaceOnUse">
<stop stop-color="#FF5C87"/>
<stop offset="1" stop-color="#7250E6"/>
</linearGradient>
<linearGradient id="paint1_linear_3946_15552" x1="14.218" y1="19.1777" x2="7.67957" y2="37.6904" gradientUnits="userSpaceOnUse">
<stop stop-color="#FF5C87"/>
<stop offset="1" stop-color="#7250E6"/>
</linearGradient>
<linearGradient id="paint2_linear_3946_15552" x1="19.2892" y1="0.5" x2="14.2906" y2="15.7898" gradientUnits="userSpaceOnUse">
<stop stop-color="#7250E6"/>
<stop offset="1" stop-color="#FF5C87"/>
</linearGradient>
<linearGradient id="paint3_linear_3946_15552" x1="33.7131" y1="8.97194" x2="26.4642" y2="30.6565" gradientUnits="userSpaceOnUse">
<stop stop-color="#FF5C87"/>
<stop offset="1" stop-color="#7250E6"/>
</linearGradient>
</defs>
</svg>
