<svg width="13" height="13" viewBox="0 0 13 13" fill="none" xmlns="http://www.w3.org/2000/svg">
<path d="M4.25586 6.80051C4.77037 7.86302 5.62953 8.71997 6.69336 9.23176C6.77183 9.26892 6.85863 9.285 6.9452 9.27842C7.03178 9.27185 7.11515 9.24284 7.18711 9.19426L8.74961 8.15051C8.81864 8.10369 8.89841 8.07512 8.98148 8.06747C9.06454 8.05982 9.14818 8.07333 9.22461 8.10676L12.1496 9.36301C12.2496 9.40462 12.3331 9.47793 12.3873 9.57167C12.4415 9.6654 12.4634 9.77436 12.4496 9.88176C12.3569 10.6053 12.0037 11.2704 11.4561 11.7524C10.9086 12.2344 10.2041 12.5003 9.47461 12.5005C7.22027 12.5005 5.05826 11.605 3.4642 10.0109C1.87014 8.41686 0.974609 6.25485 0.974609 4.00051C0.974774 3.27101 1.24074 2.56656 1.72275 2.01898C2.20476 1.4714 2.86977 1.11822 3.59336 1.02551C3.70076 1.01171 3.80971 1.0336 3.90345 1.08781C3.99719 1.14202 4.0705 1.22554 4.11211 1.32551L5.36836 4.25676C5.40103 4.33198 5.41469 4.41407 5.40815 4.49582C5.40162 4.57756 5.37507 4.65644 5.33086 4.72551L4.28711 6.31301C4.24064 6.38481 4.21337 6.46733 4.2079 6.55268C4.20243 6.63803 4.21894 6.72336 4.25586 6.80051Z" stroke="white" stroke-linecap="round" stroke-linejoin="round"/>
</svg>
