<svg width="28" height="28" viewBox="0 0 28 28" fill="none" xmlns="http://www.w3.org/2000/svg">
<rect width="28" height="28" rx="5" fill="#50AF95"/>
<path d="M14.0687 5.08774C16.2344 5.08774 18.3135 5.08774 20.4792 5.08774C20.6525 5.08774 20.7391 5.17548 20.7391 5.26322C21.9519 7.98316 23.1647 10.6154 24.4641 13.2476C24.5507 13.3353 24.4641 13.423 24.3775 13.5108C22.9048 15.0023 21.4321 16.4939 19.8728 17.9855C17.967 19.828 15.9745 21.7583 14.0687 23.6009C13.8954 23.6886 13.8954 23.6886 13.8088 23.6009C11.903 21.7583 9.99714 19.9158 8.09131 17.9855C6.61863 16.4939 5.05931 15.0023 3.58663 13.5108C3.5 13.423 3.5 13.3353 3.5 13.2476C4.1064 11.8437 4.79943 10.5276 5.40583 9.12377C6.01223 7.80768 6.61863 6.57932 7.22503 5.26322C7.31166 5.08774 7.39829 5 7.65817 5C9.82389 5.08774 11.903 5 14.0687 5.08774ZM14.1553 7.45672C12.596 7.45672 10.9501 7.45672 9.39074 7.45672C9.30411 7.45672 9.30412 7.45672 9.21749 7.45672C9.13086 7.45672 9.13086 7.45672 9.13086 7.54446C9.13086 8.33412 9.13086 9.12377 9.04423 10.0012C9.04423 10.0889 9.04423 10.0889 9.13086 10.0889C9.39074 10.0889 9.65063 10.0889 9.91052 10.0889C10.7768 10.0889 11.6431 10.0889 12.5094 10.0889C12.596 10.0889 12.596 10.0889 12.6826 10.0889C12.7693 10.0889 12.7693 10.1767 12.7693 10.2644C12.7693 10.6154 12.7693 11.0541 12.7693 11.405C12.7693 11.4928 12.7693 11.4928 12.6826 11.5805C12.0762 11.6682 11.4698 11.6682 10.8634 11.756C10.0838 11.8437 9.30411 12.0192 8.61109 12.2824C8.26457 12.3702 8.00469 12.5456 7.7448 12.7211C7.48491 12.9843 7.48491 13.3353 7.7448 13.5108C7.91806 13.6862 8.09132 13.774 8.26457 13.8617C8.87097 14.125 9.47737 14.2127 10.0838 14.3882C10.9501 14.5636 11.8163 14.6514 12.6826 14.7391C12.8559 14.7391 12.8559 14.7391 12.8559 14.9146C12.8559 16.4939 12.8559 18.161 12.8559 19.7403C12.8559 19.9158 12.8559 19.9158 13.0291 19.9158C13.8088 19.9158 14.6751 19.9158 15.4547 19.9158C15.7146 19.9158 15.7146 19.9158 15.7146 19.6526C15.7146 18.3365 15.7146 17.1081 15.7146 15.792C15.7146 15.441 15.7146 15.0901 15.7146 14.7391C15.7146 14.5636 15.8013 14.5636 15.8879 14.5636C16.7542 14.5636 17.5338 14.4759 18.4001 14.3004C19.0931 14.2127 19.6995 14.0372 20.3059 13.774C20.4792 13.6863 20.6525 13.5108 20.8257 13.423C20.999 13.2476 20.999 13.0721 20.8257 12.8966C20.6525 12.8089 20.5658 12.6334 20.3926 12.5456C19.353 11.9315 18.1402 11.6682 16.9274 11.5805C16.5809 11.5805 16.2344 11.5805 15.8879 11.4928C15.8013 11.4928 15.8013 11.4928 15.8013 11.3173C15.8013 10.9663 15.8013 10.5276 15.8013 10.1767C15.8013 10.0889 15.8013 10.0012 15.9745 10.0012C16.2344 10.0012 16.4943 10.0012 16.7542 10.0012C17.6205 10.0012 18.4001 10.0012 19.2664 10.0012C19.4397 10.0012 19.4397 9.91343 19.4397 9.82569C19.4397 9.73795 19.4397 9.73795 19.4397 9.65021C19.4397 8.94829 19.4397 8.24638 19.4397 7.45672C19.4397 7.28124 19.4397 7.28124 19.2664 7.28124C17.3606 7.45672 15.7146 7.45672 14.1553 7.45672Z" fill="white"/>
<path d="M13.7214 14.1253C13.115 14.1253 12.5953 14.1253 11.9889 14.0376C11.036 13.9498 9.99642 13.8621 9.0435 13.5111C8.87025 13.4234 8.69699 13.3356 8.4371 13.2479C8.17722 13.0724 8.17722 12.8969 8.4371 12.8092C8.78362 12.6337 9.13013 12.546 9.47665 12.4582C10.1697 12.2828 10.8627 12.195 11.6424 12.1073C11.9022 12.1073 12.2488 12.0195 12.5086 12.0195C12.5953 12.0195 12.6819 12.0195 12.6819 12.195C12.6819 12.7215 12.6819 13.1602 12.6819 13.6866C12.6819 13.8621 12.7685 13.8621 12.8552 13.8621C13.5482 13.8621 14.2412 13.8621 14.8476 13.8621C15.0209 13.8621 15.1941 13.8621 15.3674 13.8621C15.5407 13.8621 15.5407 13.8621 15.5407 13.6866C15.5407 13.2479 15.5407 12.8092 15.5407 12.3705C15.5407 12.1073 15.5407 12.1073 15.8005 12.1073C16.9267 12.195 18.0529 12.2828 19.1791 12.6337C19.3523 12.7215 19.6122 12.8092 19.7855 12.8969C19.9587 12.9847 19.9587 13.1602 19.7855 13.2479C19.4389 13.5111 19.0924 13.5989 18.6593 13.6866C17.793 13.8621 16.9267 14.0376 16.0604 14.0376C15.3674 14.0376 14.5011 14.1253 13.7214 14.1253Z" fill="white"/>
</svg>
