<svg width="37" height="36" viewBox="0 0 37 36" fill="none" xmlns="http://www.w3.org/2000/svg">
<path d="M30.614 0H6.61401C3.30031 0 0.614014 2.68629 0.614014 6V30C0.614014 33.3137 3.30031 36 6.61401 36H30.614C33.9277 36 36.614 33.3137 36.614 30V6C36.614 2.68629 33.9277 0 30.614 0Z" fill="#289FD9"/>
<path d="M15.2501 18.6464L23.6782 26.062C23.7756 26.1483 23.8938 26.2077 24.0211 26.2344C24.1484 26.2612 24.2805 26.2544 24.4043 26.2147C24.5282 26.175 24.6396 26.1037 24.7276 26.0079C24.8157 25.9121 24.8772 25.7951 24.9063 25.6683L28.4313 10.2745C28.4609 10.142 28.4539 10.0039 28.4111 9.87495C28.3683 9.74605 28.2913 9.63119 28.1883 9.54264C28.0853 9.45408 27.9602 9.39516 27.8263 9.37216C27.6925 9.34916 27.5549 9.36294 27.4282 9.41204L10.122 16.2089C9.42822 16.4808 9.52197 17.4933 10.2532 17.6433L15.2501 18.6464Z" stroke="white" stroke-width="2" stroke-linecap="round" stroke-linejoin="round"/>
<path d="M15.25 18.6473L28.0094 9.43164" stroke="white" stroke-width="2" stroke-linecap="round" stroke-linejoin="round"/>
<path d="M19.4594 22.3496L16.5344 25.2746C16.43 25.3806 16.2965 25.4531 16.1508 25.483C16.0052 25.5129 15.8539 25.4989 15.7162 25.4426C15.5786 25.3863 15.4607 25.2904 15.3777 25.167C15.2947 25.0436 15.2502 24.8983 15.25 24.7496V18.6465" stroke="white" stroke-width="2" stroke-linecap="round" stroke-linejoin="round"/>
</svg>
