<svg width="37" height="36" viewBox="0 0 37 36" fill="none" xmlns="http://www.w3.org/2000/svg">
<path d="M30.614 0H6.61401C3.30031 0 0.614014 2.68629 0.614014 6V30C0.614014 33.3137 3.30031 36 6.61401 36H30.614C33.9277 36 36.614 33.3137 36.614 30V6C36.614 2.68629 33.9277 0 30.614 0Z" fill="#1BD741"/>
<path d="M11.2563 22.5943C10.1396 20.7103 9.74899 18.4835 10.1578 16.3319C10.5666 14.1804 11.7467 12.252 13.4765 10.9089C15.2064 9.56572 17.367 8.90016 19.5527 9.03715C21.7385 9.17413 23.7991 10.1042 25.3477 11.6528C26.8963 13.2014 27.8264 15.2621 27.9634 17.4478C28.1004 19.6336 27.4348 21.7942 26.0917 23.524C24.7486 25.2539 22.8202 26.434 20.6686 26.8428C18.5171 27.2516 16.2902 26.861 14.4063 25.7443L11.2938 26.6256C11.1662 26.6629 11.031 26.6652 10.9023 26.6322C10.7736 26.5993 10.6561 26.5324 10.5622 26.4384C10.4682 26.3445 10.4013 26.227 10.3683 26.0983C10.3354 25.9695 10.3377 25.8343 10.375 25.7068L11.2563 22.5943Z" stroke="white" stroke-width="2" stroke-linecap="round" stroke-linejoin="round"/>
<path d="M21.2594 23.25C20.2726 23.2525 19.295 23.0599 18.3828 22.6834C17.4706 22.3069 16.6418 21.7539 15.944 21.0561C15.2462 20.3583 14.6931 19.5295 14.3166 18.6173C13.9401 17.7051 13.7476 16.7275 13.75 15.7406C13.7525 15.0461 14.0302 14.3808 14.5222 13.8905C15.0142 13.4003 15.6805 13.125 16.375 13.125C16.4896 13.1241 16.6023 13.1541 16.7013 13.2118C16.8003 13.2696 16.8819 13.3529 16.9375 13.4531L18.0344 15.3656C18.0996 15.4819 18.1331 15.6133 18.1315 15.7466C18.1298 15.8799 18.0931 16.0104 18.025 16.125L17.1438 17.5969C17.5952 18.601 18.399 19.4049 19.4031 19.8563L20.875 18.975C20.9896 18.9069 21.1202 18.8702 21.2535 18.8686C21.3868 18.8669 21.5181 18.9004 21.6344 18.9656L23.5469 20.0625C23.6471 20.1181 23.7305 20.1997 23.7882 20.2987C23.8459 20.3977 23.8759 20.5104 23.875 20.625C23.8726 21.3188 23.5965 21.9837 23.1068 22.4752C22.6171 22.9666 21.9532 23.2451 21.2594 23.25Z" stroke="white" stroke-width="2" stroke-linecap="round" stroke-linejoin="round"/>
</svg>
